<svg xmlns="http://www.w3.org/2000/svg" viewBox="0 0 749.77 870.4"><path d="M0,476c.43-1.55,1.28-3.12,1.22-4.65C.16,447.23,5.46,424,11.5,401c2.9-11.11,6.8-22,9.23-33.19,1.62-7.42,1.45-15.22,2.07-22.83l5.69,1.69C35,334,41.1,321.6,47.72,309.49c6.07-11.1,12.65-21.84,20.85-31.68,7.81-9.39,14-20.15,21.36-29.9,3.47-4.58,8.26-8.16,12.31-12.32,5.32-5.48,10.43-11.15,15.78-16.6a55.71,55.71,0,0,1,6-4.86c.85-.66,2.19-1,2.62-1.84,4.56-8.88,13.61-12.47,21-18,5.88-4.43,6-5.92,1.76-11.78-8.16-11.22-14.7-23.17-18.51-36.74a42.1,42.1,0,0,1,1.42-28.09c2.09-5.06,5.06-10,10.8-13.38A97.49,97.49,0,0,1,179,92a132.57,132.57,0,0,1,33.59-.67c6.07.65,12.31-.14,18.46-.39,3.17-.14,5.32-1.43,5.52-5.09s2.56-5.84,6.13-7a62.58,62.58,0,0,1,27.77-2.51l-3.68-7h12.12c.35,4.54,2.57,6.89,7.7,5.34-2.36-5.19-4.41-11.12-10.88-11.71-5.48-.51-11.13.79-16.88,1.3-1.6-3.2,3.55-7.1-.36-11.35-1.21,2.68-2,4.44-3.07,6.8-5.71-6.5.06-11.87.37-17.44-7.26,1.4-8.16,3.54-10.34,24.11H239.3c-3.73-6.58,5-13.65-.78-20.4,3.36-6.85,6.82-13.85,10.25-20.87,3.62-7.41,9.28-12.93,17.1-15.16,12.94-3.68,26-7.11,39.22-9.56a27.37,27.37,0,0,1,24.46,7.71c10.55,10.39,21,21,30.33,32.44,6.55,8,13.13,10.79,23.33,8.21a104.71,104.71,0,0,1,50.5,0c6.53,1.56,13.62,1.9,19.52,4.75,7.23,3.48,13.59,8.86,20.12,13.69,7.46,5.51,12.09,13.87,15.68,21.66,4.27,9.22,4.75,20.19,6.79,30.43a23.16,23.16,0,0,1,.07,4.49c0,12.73.05,12.66,12.13,17.17,10,3.72,19.93,7.39,29.67,11.59,4.32,1.87,7.91,5.35,12.15,7.47A108.3,108.3,0,0,0,564,165.58c3.28,1.09,10.08-3.86,12.31-8.74.52.43,1.24.73,1.38,1.2,1,3.36.67,6.91,2.39,10.27.65,1.28-1.7,4.09-2.54,5.89,2.37,1.65,5.19,3.55,8,5.54,3.31,2.36,6.51,4.88,9.87,7.18,3.11,2.12,4.92,4.16,3.58,8.57-1.1,3.61-.37,7.76-.57,11.67-.06,1.16-.22,3.06-.84,3.3a5.39,5.39,0,0,1-4.25-.08,68.83,68.83,0,0,1-9.16-6.84c-4.31-3.87-7.85-8.81-12.65-11.84-4.51-2.85-10.22-3.8-15.47-5.62-2.05,5.48-.88,8.53,3.26,11,8.16,5,16.07,10.33,24.1,15.49,3.23,2.07,6.21,4.22,5,7.27,3.92,1.92,7.71,3,10.42,5.25,7.76,6.55,15.31,13.38,22.49,20.55,5.19,5.18,9,11.89,14.59,16.48,9.9,8.12,15.75,19,22.25,29.46,1.94,3.11,2.7,7.13,3.31,10.85.72,4.35,2.69,7.29,6.66,9.23,3.24,1.58,6.25,3.63,9.37,5.47l-.62,1.27-18.21-8.11c2.35,11.61,12.46,18.42,14.65,28.95l-1.11.69c-2.13-3.52-4.39-7-6.38-10.56a359.54,359.54,0,0,0-41.2-58.85,245.77,245.77,0,0,0-51.26-45.11c-23.88-16-47.66-32.26-74.94-42.24A118.54,118.54,0,0,0,485,179c-1.38-.32-4,.64-4.65,1.8-7.73,14.57-18.6,26.28-31.68,36.18a53.15,53.15,0,0,0-9,9.25c-1,1.25-1.55,4.09-.82,5.3,1.81,3,2.28,5.49.93,8.79-.67,1.64-.15,3.92.25,5.82,1.09,5.15,2.21,10.31,3.67,15.36,1.17,4.07,2.81,8,4.31,12,.45,1.19,1.13,2.29,1.89,3.82-1.5.36-2.56.71-3.65.87-2.66.37-6-2.34-7.81,1.89-2,4.64-3.32,9.57,0,13.78s7,8.28,11.42,11c9.79,6,20.21,10.86,30.22,16.48,7.24,4.07,14.27,8.51,21.27,13,1.45.92,2.36,2.68,4.77,5.54-56,6.17-109.74,18.33-164.59,22.7l-.73-1.42c2-2.49,4-5.08,6.12-7.47,10.59-11.76,21.67-23.11,31.73-35.31,7.7-9.36,14.16-19.74,21.11-29.71a18,18,0,0,0,2.52-4.86c1-3.32,1-7.18,2.68-10,1.57-2.55,4.91-4,8-6.35-2.45-2-3.33-3.16-4.46-3.47-5.47-1.49-7.2-5.42-8-10.57-.87-5.41-2.69-10.66-3.64-16.07a6,6,0,0,1,1.76-4.91c15.25-10.84,17.16-27.74,20.09-44.08.77-4.27-1.4-7.26-6.27-7.91-2.2-.29-4.26-1.59-6.55-2.49L396.74,189c2.07,4.77,7.46,8.51,5.65,16l-7.41-6.3c-.75,4.54-1.84,8.14-1.84,11.74,0,9,.44,18,.79,27,.69,17.29-4.06,32.58-16.38,45.15a43.52,43.52,0,0,0-2.87,3.46c-6.75,8.51-13.95,15.91-24.45,20.58-9.89,4.39-19.56,8.48-30.33,9.7-10.94,1.24-21.45,1.05-31.27-5.37-4.95-3.24-11.1-4.6-16.41-7.38a23.88,23.88,0,0,1-7.35-6.38,136.36,136.36,0,0,1-11.43-16.37c-2.35-4.13-3.41-9-5.11-13.5q-3.39-9-6.91-18a3.78,3.78,0,0,0-1.55-1.78c-15.2-8.45-30.56-16.63-45.56-25.41-4.94-2.9-8.18-1.79-12.46,1.06-26.52,17.63-47.19,41.1-67.35,65.34-15.06,18.09-26.82,38.07-37.91,58.59a39.48,39.48,0,0,0-3.75,10.24c-.89,4.09,1.19,6.42,5.25,5.53,6.85-1.5,14.37-.43,20.4-5.57,1.31-1.11,4.75-.78,6.65.1,4.17,1.93,8,4.63,12.83,7.55-5.49,2.24-9.09,0-12.94-1.78-2-.94-4.69-1.65-6.78-1.2-7.26,1.58-14.3,4.33-21.6,5.46S64.83,372.07,63,378.8c-4.85,18.15-9.56,36.35-14,54.6-8,32.79-4.73,65.89-2.66,99,2.48,39.74,16,76,33.44,111.16,2.89,5.81,6.07,11.47,9.15,17.19.11.22.53.29,1.48.76v-9.73c1.51,3.06,3.07,4.91,3.31,6.92C95.31,672,102.42,682.77,110.2,693c19.28,25.3,41.36,47.93,66.83,67.06,8.76,6.59,18.33,12.1,27.36,18.33,5.71,3.94,10.66,9.2,16.75,12.29,10.62,5.4,22,9.21,32.8,14.36,16.35,7.82,34,11.5,51.12,16.89.13,0,.2.24.37.46-.31,3-.63,6-1,9.21l-4.27.74-.07,1.31c8.18,1.79,16.41,3.24,25,2.12,3,1.38,5.81,3.69,8.87,4a453.87,453.87,0,0,0,85.81.23c2.44-.23,4.82-1.18,7.22-1.8-.08-.56-.16-1.12-.25-1.69-5.75,0-11.59-.63-17.25.12-17.36,2.31-34.63,4.51-52.22,2.09-10.7-1.47-21.55-1.88-32.33-2.77l-1.5-10.86c9.4.82,18.1,2,26.82,2.25,17.64.52,35.28.55,52.92.75a9.91,9.91,0,0,0,3-.43c14.06-4.32,29.07-2.18,43.7-7.35.34,4.25.62,7.64.94,11.62l-20.54,4.66c18.32-1.21,36.06-4.69,53-11.39-.14-.66-.28-1.32-.43-2L453,830.38c-1.29-8.84-.7-9.94,7-12.29,9.52-2.9,19.33-5,28.55-8.65,12.33-4.85,24.22-10.84,36.3-16.32,4.34-2,8.69-3.9,13.2-5.92,1.89,9.28-.31,13.62-8,16.94-9.48,4.08-18.93,8.22-28.48,12.14-2.28.93-5.39,3.5-6.09-.51l-10.28,7.51.89,1.48c40.13-12.37,76.11-33.23,108.38-59.55,65.72-53.61,108.77-121.7,124.42-205.92,9.4-50.56,9.13-100.88-3.74-150.82l-1.61.07c.3,2.75.47,5.52.9,8.24,2,12.5,5.13,24.93,5.85,37.49,1.14,20.23.75,40.56.85,60.84,0,2.21-1,4.42-1.61,7l-6.37-2.35c1-2.27,2-4.29,2.92-6.31l-1.56.21c-.85-3.46-2.21-6.87-2.48-10.37-1.88-24.57-3.4-49.17-5.43-73.73-.3-3.54-3.07-6.8-4.13-10.37-1.92-6.46-4.15-13-4.89-19.62a81.56,81.56,0,0,0-6.64-24c-.58-1.31-2.79-1.89-4.48-3L695,361.13l3.72,1.29c-2.56-3.83-.36-10.06-6.55-9.19-2.15-6.69-4.45-13-6.12-19.52-.5-1.93.75-4.31,1.37-7.3L695,337.82l1.52-.79c-3.35-6.33-6.77-12.63-10-19-3.38-6.62-1.38-15.63-8.94-20.23l6.41-12.3c2.08,1.82,4.11,3.44,6,5.24,2,2,3.77,4.2,5.8,6.15,3.09,3,6.3,5.57,7.16,10.37.42,2.39,3.12,4.39,4.8,6.55a16.57,16.57,0,0,1,2.11,2.6c4.17,8.52,8.64,16.92,12.28,25.67,3.87,9.3,6.86,19,10.38,28.44,2,5.51,4.36,10.92,6.56,16.37l-1.76.77-3.23-7-.94.28c1.18,3.93,2,8,3.65,11.72,1.06,2.4,1.69,4-.53,6-1.77,1.61-2.68,3.59.71,4.84a3.51,3.51,0,0,1,1.66,2.24c2.3,8.32,4.78,16.6,6.61,25,1.28,5.92.78,6.25-3.91,10.89h5.83a62.09,62.09,0,0,1,1.16,7.92c.26,12.65.69,25.31.29,37.95-.13,4.09-2.58,8.12-4.25,13l5.47,4L736,509.09c.66-5-3.27-11,1.94-14.55-1-3.38-2.32-5.93-2.54-8.57-1.19-14.26-2-28.56-3.21-42.82-.19-2.35-1.36-4.62-2.07-6.92l-1.53.22c.32,5,.57,9.93,1,14.88,1.85,22.58,4.37,45.08,2.69,67.83a322,322,0,0,1-17.69,83.3c-3.25,9.26-5.92,18.73-8.83,28.11a4.79,4.79,0,0,0,.08,3.43l3-4.91a82.75,82.75,0,0,1,6.69,5.33,4.86,4.86,0,0,1,1.41,3.72c-1.39,7-2.91,14-4.72,20.94-1.6,6.12-5.33,10.28-12,11.1-.66.08-1.28.41-1.93.53-4,.74-8.37,3.67-11.54-3.08-.46,2-1,2.83-.73,3.33.73,1.5,2.8,3.13,2.51,4.23-2.37,9.11,4.06,19.17-1.85,27.37-3.51,4.86-7.29,9.17-8.3,15.23-11.57,6.5-16.83,19-26.15,27.68s-17.27,18.49-26,27.62c-1.26,1.32-3.64,1.55-5.76,2.38-2.81-11-9.66-3.54-16.1-3.42,3.07-3.19,5.28-5.61,7.61-7.89,11.44-11.14,23-22.12,34.31-33.42,3.76-3.77,6.81-8.27,10-12.58.94-1.28,1.24-3,2.2-5.52-12,12.54-22.82,24.42-34.3,35.61s-23.89,21.94-35.95,32.94l8.66,2c-.07.37-.15.75-.23,1.12L591.4,783l-8.09,22.17-7.17,1.85L574,803c-4,.92-7.33,1.93-8.26,6.77-.37,1.86-3,3.31-4.62,4.9-1.42,1.37-3.19,2.46-4.36,4-6.56,8.76-16.48,12-26,15.61-8,3.09-16.41,5.38-24.65,8L499,831.12c1.38-.93,2.8-1.88,4.22-2.85,8.32-2.58,17.14-4.09,24.1-10.65-.78-.38-1-.55-1.07-.51-7.67,3.13-15.33,6.26-22.95,9.48-.2.09,0,1.2,0,1.83-6.1-2.11-10.54,2-15.65,3.55,0,.46.1.92.16,1.38h7.3c3.79,8,1.54,12-5.8,16.48-22.36,13.78-47.87,13.92-72.51,17.34-26.44,3.68-53.24,4.64-79.71.64-32.89-5-65.48-11.18-96.81-23.49-22.19-8.72-42.15-21-62.42-33-6-3.56-12.08-7.05-17.92-10.88a13.81,13.81,0,0,0-12.37-1.8c-6.81,2.16-13.51,4.73-20.38,6.68a197.27,197.27,0,0,1-22.37,4.83c1.29-3.24,3.18-4.39,6.68-4.34s7.6-.61,10.24-2.58c6.18-4.62,12.94-6.53,20.37-7.29,1.54-.16,4-1.43,4.16-2.51.23-1.33-1.08-3.49-2.35-4.46-27.62-20.86-50.59-46.15-71.31-73.71C42.4,675,21.55,630.48,11.08,581.15c-1-4.84-2.27-9.64-3.4-14.38,12.77-4.76,15.14-17.37,5.66-26.54-1.64-1.58-2.3-4.17-3.44-6.29-.84-1.56-1.34-3.64-2.64-4.57-5.13-3.66-5.85-9-6.2-14.55C.84,511.2.36,507.6,0,504ZM673.1,693.14c-4.24,2.45-6.55,6.28-7.53,11,1.63-4.3,8-5.32,7.4-11.18,4.48-1.61,5.89-4.29,2.89-8.48Zm-397.33-511-1.18-.3c-.19-1.24-.31-2.5-.6-3.71-.63-2.57-.82-5.45-2.16-7.6-2.24-3.59-4.94-7.82-10.24-4.55a131.6,131.6,0,0,0-10.72,7.82c-1.59,1.22-3,2.66-4.79,4.26-4.25-10.76,1.5-17.4,8.12-24.25-9.4,0-14.68,4.66-15.2,13.2a96.27,96.27,0,0,0,.64,19.94c2.85,19.07,6.12,38.09,9.6,57.06.58,3.19,3,6,4.61,9,2.07-5.66,2-11.3,4.36-15.58a117.93,117.93,0,0,1,15-21c3.56-4,4.09-6.82.89-10.87-1.78-2.28-1.73-5.18,1.23-6.21,2.22-.77,5.49-.91,7.37.21,4.75,2.83,11.12,2.79,14.52,8.1.52.81,2,1.06,3.11,1.46,13.12,4.82,26.2,9.75,39.4,14.35,5.59,2,9.49,4.92,11.16,10.92,1.31,4.7,4.95,5.3,8.43,1.67,10.11-10.55,16.89-22.54,16.91-37.72,0-4.75.44-9.88,2.25-14.18,4.55-10.78,3.61-21.48,1.21-32.35-1.85-8.36-6.78-13.48-15.49-14.76-1.42-.21-3.35-1.11-3.92-2.24-2.5-5-6.82-6.44-12.09-6.83,0,1.57-.05,3,0,4.49.24,5.32-.51,6-5.58,4.83-2.41-.56-4.8-1.21-7.13-1.8-2.79,2.8-1.39,4.21,1.13,5.88,4.24,2.81,10.07,4.06,11.59,11.63-11.75,0-23,0-34.3,0-.72,0-1.92-.39-2.09-.88-2.52-7.4-11.49-8.24-15-14.77-.71-1.31-3.51-2.17-5.21-2-.93.1-1.86,2.73-2.33,4.36-3.09,10.73-5.93,21.54-9.13,32.24C279.09,175.47,277.25,178.73,275.77,182.1ZM76.2,650.13c-2.87-1.16-6.13-2-8.91-3.7-2.55-1.54-5.61-3.49-6.71-6C43.39,601,30.78,560.29,28.63,517.05c-2.53-50.83,3.65-100.45,22.82-148A40.24,40.24,0,0,0,54,360c.22-1.51-.92-3.22-1.44-4.84-2,.64-4.08,1-5.81,2-1,.58-1.38,2.22-1.82,3.47-4.4,12.57-9.47,24.95-13,37.77-16.57,60.4-15.69,121-1.24,181.7,8.12,34,19.89,66.64,39.11,96.15,1.64,2.51,4.56,4.17,7.64,6.9-.69,5.89,3.52,11.36,7.49,17,20.22,28.52,45.74,51.94,71.91,74.72,4.9,4.27,8.34,4.37,14.75.43-4.26-3.73-8.22-7.51-12.49-10.88a330.08,330.08,0,0,1-72-77.76c-1.63-2.46-4.13-4.34-5.94-6.2-1.42-3.52-2.32-7.26-4.29-10.31-4.07-6.33-7.66-12.34-.64-18.91C76.27,651.08,76.2,650.83,76.2,650.13ZM55.84,351.37c1.76-2.34,3.95-4.29,5-6.74,7.06-16.95,17.51-31.87,27.83-46.85,8-11.55,15.69-23.36,24.71-34,8.34-9.9,18-18.74,27.56-27.53,8.69-8,18.09-15.2,27-23,1.32-1.16,1.53-3.61,2.25-5.46-2,0-4.52-.71-6,.19-4.95,3-10,6.15-14.18,10.12-14.22,13.56-28.08,27.5-42.08,41.29-2.65,2.62-5.73,4.93-7.84,7.93-8.81,12.5-17.64,25-25.84,37.91-7.1,11.17-13.61,22.74-19.81,34.43C52.68,342.87,51.75,347.33,55.84,351.37Zm283.92-98.1c.92-9.17-3.47-13.84-12.3-14.29-5.57-.28-11.07-1.8-16.63-2.53-3.69-.48-7.91-1.8-11.05-.58-9.57,3.72-18.75,8.45-28,12.92a4.23,4.23,0,0,0-1.73,2.7c-1.75,8.41.11,10.63,8.7,10.56a51.9,51.9,0,0,0,6-.21c2.09-.25,5.28-.12,6-1.34,4-6.7,9.38-7,15.86-4.65a10.56,10.56,0,0,0,4.46.24C320.63,255.2,330.21,254.22,339.76,253.27Zm214.09-68.53c-5.45-2.93-10.74-5.85-16.09-8.63-6.64-3.45-13.26-7-20-10.14-7.33-3.41-14.8-6.51-22.27-9.62-2.78-1.16-4.7-.2-5.82,2.77s0,4.22,2.59,5.29c5.82,2.43,11.52,5.16,17.34,7.58,12.37,5.15,24.8,10.17,37.18,15.28C553.05,189.88,553,189.91,553.85,184.74ZM701,369l-1.46.52q4.35,13,8.71,26.05l1.37-.47C710.46,388.59,705,372.12,701,369ZM568.7,792.68l1.41,2.23q5.75-3.58,11.47-7.19l-1.33-2.12Zm127.9-145c-.77,4.72-5.47,7.49-3.22,12.72C697.24,655.55,698.78,650.58,696.6,647.67ZM539.41,815.33c-3.24-3.32-3.24-3.32-11.34,1.07C532.57,821.28,534.77,813.18,539.41,815.33ZM712.46,398.47H711a51,51,0,0,0-.67,6.37c0,.82,1.07,1.63,1.64,2.45.63-.91,1.82-1.85,1.77-2.72A36.42,36.42,0,0,0,712.46,398.47Zm-330,244.73c-3.84,9.25-11.9,13.47-20.36,10.87-5.37-1.65-9.41-2.05-14.41,2.09-6.45,5.34-19.06,1.44-21.52-5.71l7.24-3c3.9-1.63,5.69-4.65,5.14-8.75-1.45-10.89-2.81-21.82-4.81-32.62-.6-3.22-2.89-6.3-5-9-1.67-2.23-2.2-3.79-1.06-6.63a25.43,25.43,0,0,0,1.82-10.59,163.45,163.45,0,0,0-2.46-20.8c-1.35-7.34-3.2-8.6-10.56-9.37a48.5,48.5,0,0,1-5.2-1.09c1.09-6.36,3.84-9.95,9.39-9.26,11.65,1.45,21.68-1.44,32.23-6.31,6.81-3.15,15.62-2.61,23.53-2.6,13.6,0,20.74,9.53,27.16,19.94,2.38,3.86,3,7.13,1.4,11.53-2.79,7.48-4.64,15.32-12.14,21,3.41,1.49,5.9,2.67,8.46,3.68a13,13,0,0,1,8.68,10.7c1,6.91,1.8,13.87,2.71,20.8.22,1.65.51,3.3.89,4.91,2.95,12.59,15.16,16.57,25,8a5.74,5.74,0,0,0,1.69-4.33c-1.41-12.39-2-25-5-37-1.64-6.6-7.46-11.53-2.23-19.58,2-3.08-.72-9.29-1.47-14s-1.79-9.49-2.62-14.25c-.64-3.71-2.27-6-6.49-6.13-2.94-.1-5.85-1-8.76-1.55,1.14-6.63,4.38-10.48,10.66-9.71,10.7,1.33,19.79-1,29.25-6.16,8.19-4.47,18-4.34,27.44-3.16a25.24,25.24,0,0,1,17.73,10.14c3.28,4.39,6.28,9,9.2,13.67a5.08,5.08,0,0,1,.28,3.64c-1.2,4.48-2.09,9.18-4.13,13.28-2.24,4.49-5.61,8.42-8.65,12.82a13.54,13.54,0,0,0,3.32,1.37c9,1.29,12.59,7.48,13.95,15.43s2,15.87,3.33,23.75c1.5,8.75,4.76,11.32,13.06,11.14,10-.22,14.5-4.76,13.45-14.76-1-9.59-2.8-19.1-4.26-28.65a4.6,4.6,0,0,0-.7-2.37c-6.07-6-4.58-12.91-3.78-20.55.9-8.61-.66-17.58-2-26.28-1-6.41-3.32-7.75-9.81-8.5a51.43,51.43,0,0,1-6.18-1.46c3.62-7.65,13.43-11.35,21.49-9.17,2.56.69,5.64.08,8.35-.52,5-1.11,9.81-3.13,14.83-3.88,4.26-.64,7.69,1.58,9.86,6.58-2.19,1-4.26,2.23-6.47,3-4.19,1.5-6.83,3.84-6.25,8.76.93,7.91,1.32,15.9,2.7,23.72a17.15,17.15,0,0,0,4.85,9.08c3.29,3,2.47,5.46,1.56,9.09A49.6,49.6,0,0,0,565.41,580c.55,7.45,2.25,14.81,3.42,22.21,1.28,8.16,2.22,9.13,10.25,10.2,2.13.29,4.27.52,6.37.78.36,6-1.85,10-7.27,10.67a49,49,0,0,1-14.73-.72c-3.19-.57-5.59-.62-8.27,1.42-7,5.29-14.39,6.28-22.44,2.11a6,6,0,0,0-5.49.73c-4.55,4.24-9.45,5.28-15.16,3.11-3.4-1.29-6.06-.83-9,1.82-2.21,2-5.68,2.58-9.06,4-1.77-12.64-3.19-24-5-35.32-.88-5.4-2.48-10.69-3.86-16-.8-3.09-2.82-4.82-6.14-4.78-.33,0-.67-.06-1-.09-15-1.34-18.07,2.22-14.8,16.71,1.57,7,2.58,14.08,3.6,21.16s2.2,8.34,9.42,9.08c2.29.23,4.58.53,6.85.79-.39,6.54-3,9.9-8.83,11.13a28.43,28.43,0,0,1-6.45.51c-3.81-.1-16.86,2-20.54,3.5-5.15,2.15-9.89.35-14.4-1.8-3.31-1.57-5.79-1.42-8.44,1.22-4.49,4.47-10.06,5.15-15.75,3-3.14-1.17-5.27-1-7.24,1.77a7.35,7.35,0,0,1-2.82,2c-5.12,2.45-7.2,1.83-8.13-3.63-1.5-8.84-2.25-17.8-3.3-26.72-.49-4.13-.56-8.34-1.46-12.38-2-8.78-8.75-12.54-17.41-10-7.85,2.28-8.26,2.33-7.33,10.34,1.13,9.73,3,19.37,4.63,29,.66,4.06,3,5.87,7.19,6C375.86,641.91,378.88,642.67,382.47,643.2ZM481.76,550c-1-5-1.49-10.23-3.15-15-2-5.89-7.32-8.09-13.84-6.78-6.75,1.36-10.09,4.41-9.62,10,.71,8.44,1.84,16.87,3.23,25.22.83,4.95,3.88,6.45,8.87,5.28C477.68,566.28,481.42,561.29,481.76,550ZM379.21,565.77c-1.45-5.59-2.34-11.39-4.48-16.69-2.36-5.85-7.89-8.27-12.93-6.87a11.93,11.93,0,0,0-8.64,13c1,8.26,2.43,16.48,4,24.66.2,1.09,2.07,2.71,3.12,2.67C372,582.19,379,580.15,379.21,565.77ZM248.83,407.51c6.13,1,8.46,4.89,9.06,10.75.89,8.77,2,17.55,3.51,26.24.92,5.27-1.54,7.63-6,8.4-5.23.92-10.57,1.12-15.84,1.83-3.42.46-4.84-1-5.18-4.22-1.14-10.77-2-21.58-3.72-32.26-.85-5.29,1.21-8,5.37-10.13,3.31-1.72,3.34-4.57.38-6.6-8.08-5.51-16.57-2.94-23,2.18a4.54,4.54,0,0,1-4.12.38c-7.35-4.43-19.48-3.1-25.07,3.33-1.71,2-2.51,4.73-4.41,8.47,4.79,0,8.08.22,11.33-.06,3.44-.31,5.41,1.09,6.22,4.28C199,426.38,200.9,432.61,202,439c1.71,10.31,3.51,20.82-4.49,28.61,3.37,4.57,8.41,8.6,9.58,13.54,3,12.57,4.33,25.53,6,38.38.64,4.81-2.1,7.77-6.69,9.2-2.77.86-5.43,2-8.18,3.1,3.74,8,11.1,11.35,19.7,7.21s16.65-6.35,26.45-4.23c7.22,1.56,11.22-3.41,11.4-11.15-2.24-.85-4.94-1.24-6.78-2.71-2.3-1.83-5.06-4.31-5.59-6.92-2.37-11.73-4.14-23.59-5.87-35.44-.54-3.7-.37-7.82,4.51-8.64,7.49-1.24,15-2,23-3.08,1.49,12.79,2.79,24.52,4.24,36.22,1,7.77,3.93,16.17-7.13,18.89,1.26,8.71,13.18,12.58,20.87,6.33,4.59-3.73,8.37-3.36,13.09-1.89,8,2.5,15.25,1,21-5.26,1.38-1.5,1.65-4,2.43-6-1.94-.58-3.88-1.66-5.82-1.65-8.3.08-11.49-2.07-12.62-10.13q-2.07-14.83-3.26-29.79c-.54-6.89-1.32-14.14,5.88-18.77.62-.4.85-1.39,1.37-2.3-3.5-3.86-6.73-7.92-10.48-11.43-4.38-4.08-2.47-9.7-3.93-14.47-1.84-6-1.85-12.69-2-19.1-.1-4,3.25-5.9,6.78-7l7.4-2.37c-3.29-9.1-17-12.72-25.69-6.78-4.74,3.26-8.92,4.5-14.75,2.56-8.18-2.73-16,3.43-16.67,12.53A17.53,17.53,0,0,0,248.83,407.51Zm365.75,74.71c2.87-1,5.5-1.54,7.75-2.77,4.09-2.22,7.93-3.33,12.8-2,6.47,1.71,12.15-1,16.63-5.76,1.1-1.18,2.13-3.66,1.61-4.8-.65-1.38-2.88-2.5-4.6-2.83-4.24-.82-7.56-2.33-9.92-6.35-5.16-8.79-10.86-17.26-16.14-26-2.78-4.58-7-8.69-6.27-14.7,1-8-1.21-13.75-10-15.35-.31-.05-.56-.35-.86-.49-3.46-1.63-4.56-4-2.76-7.63,5.62-11.31,11.07-22.7,16.79-33.95a14.18,14.18,0,0,1,10-7.61c4.57-1,5.54-3.93,2.39-7.47a10.15,10.15,0,0,0-6.36-3.23c-3.92-.15-7.87.89-11.81,1.3-2.75.3-5.58.84-8.27.48a14,14,0,0,0-15,8.81c-.89,2.51-1.08,4.68,2.3,5.22,5.09.82,5.19,4.06,3.38,7.64-6.52,12.85-13.22,25.6-19.86,38.39l-1.39,0c-.77-1.86-1.93-3.66-2.25-5.6-1.33-8-2.54-16.1-3.55-24.19-1.23-9.8-1.13-9.81,8-14,1.06-.49,2.54-.85,3-1.7.6-1.22,1.07-3.56.44-4.13-2.07-1.86-4.49-3.8-7.1-4.52-6.73-1.83-13.3-1.19-18.61,4-2.47,2.4-4.77,3.22-7.91,1.31-5.28-3.2-11-2.48-16.47-.89-6.56,1.9-11.41,7.75-10.93,13.09l13.45-.79c1.41,1.65,3.75,3.21,4.33,5.26,4.14,14.67,7.12,29.42.55,44.32-.64,1.48-.27,4.46.82,5.46,6.55,6.09,8,14.35,9.88,22.34a78.2,78.2,0,0,1,1.92,16.28,83.2,83.2,0,0,1-1.42,17.05c-.34,1.75-3.34,3.26-5.41,4.3-2.52,1.28-5.35,1.95-9.2,3.29,4.06,2.89,6.46,5.46,9.4,6.46a23.68,23.68,0,0,0,10.24.69c1.18-.14,1.78-3.2,3.11-4.42a10.92,10.92,0,0,1,4.54-2.07,18.7,18.7,0,0,1,4.38-.37c2.36,0,5.33-.92,7,.16,5.91,3.93,11.73,3.13,17.58.63,5.27-2.25,7.34-6.14,6.91-12l-4.85-.42c-6.94-.62-11.44-4.66-12.29-11.49-1-8.06-1.74-16.16-2.53-24.25-.41-4.22.76-7.87,5.23-11.65C596.59,442.56,608.48,460.39,614.58,482.22ZM342.6,381.1c-4.52,2.79-8.4,3.91-13.8,2.43-6.76-1.86-13.77-.91-19.11,4.33-1.69,1.65-2.1,4.6-3.1,7,2,.73,4,1.91,6.09,2.11,7.15.7,10.25,4,10.58,11.11.16,3.64,1.18,7.23,1.41,10.87.47,7.78.74,15.58,1,23.37.11,3.81-2.64,8.51,3.51,10.27.29.08.47.83.55,1.3,1.84,10.46,4.27,20.86,5.35,31.4,1.74,16.86,10.89,28.28,27.46,31.91,14.38,3.14,28.14,1,41.08-6.1,8-4.38,14-11,15.2-20,1.11-8.08.55-16.49-.09-24.7-.57-7.33-3.84-14.42-1.79-22a72,72,0,0,0,1.64-7.52c.19-1.21.3-2.77-.29-3.69-6.91-10.83-7.29-23.31-9.4-35.41-1.55-8.85,0-15.38,9.79-17.71.12,0,.17-.28.26-.42-2.5-7.76-9.57-10.19-18.13-5.19-4.45,2.6-7.95,2.86-12.74,1.27-8.6-2.85-14.23.64-16.13,9.26a43.76,43.76,0,0,0,5.45,2c5,1.17,8,4.52,8.63,9.26,1.58,12.3,2.65,24.67,3.93,37l-1.66-.26-8.42,4.13.42.71,8-3.36c1.52,5.75,2.71,10.26,4,15.07l-4.76.72c6-.89,6.93,3.09,7.52,7.51.65,4.94,1.55,9.84,2.05,14.8a99.44,99.44,0,0,1,.86,14.91c-.47,8.86-5.31,13.55-14.53,15-7,1.11-12.51-2.39-15.54-10.37a42.73,42.73,0,0,1-2.43-9.64c-1-7.92-2-15.87-2.49-23.83-.31-5.14.26-10.33.44-15.81,2.13,0,3.28,0,4.42,0s2.46-.12,3.69-.18c-10.82-1.45-11.88-2.21-10.15-6.15-1.23-2.45-2.57-4.08-2.84-5.87-1.44-9.81-2.61-19.66-3.9-29.5-.7-5.38,1.22-9,6.64-10.62a28.69,28.69,0,0,0,4.92-2.6C361.7,378.45,351.63,375.53,342.6,381.1Zm-212,263.72c.88,7.6,2.27,15.15,2.91,22.77.63,7.45-.23,8.26-7.51,10.56-.63.2-1.27.4-1.89.63-3.81,1.38-4.32,3.14-1.39,6,4.6,4.5,10.33,4.3,15.33,1.67,5.52-2.9,10.61-4,16.43-1.54a10.47,10.47,0,0,0,4.45.28c7.09-.46,10.26-3.93,10.3-11.17-.27-.18-.53-.47-.83-.51-1-.12-2-.18-3-.22-8.92-.39-10.34-1.31-12-10-1.55-8.18-2.55-16.46-3.7-24.71-1-7.48-2-15-3-22.46l1.21-.4c2.51,4,5.17,7.95,7.5,12.07,9.45,16.68,22.95,31.32,26,51.26,0,.27.42.49,1.57,1.72,3.39-1.61,7.63-2.83,10.8-5.37,2.72-2.2,4.53-2,7.47-1,3.55,1.23,7.43,1.51,12.29,2.41-1.89-12-3.5-22.31-5.17-32.64s-3.47-20.92,5-29.68c.28-.28.23-.87.32-1.27-10.44-6.25-11.06-7.15-12.76-18.07-.84-5.43-1.94-10.83-2.53-16.29-1.21-11-.73-11.56,9.67-14.88a13.07,13.07,0,0,0,2.09-1.09c-1.06-4.32-3.64-7.64-7.67-6.58-11,2.89-22.1,3.84-33.31,4.51a4.08,4.08,0,0,0-1.43.43c-3.68,1.65-5.67,4.35-5.34,9.15,2.12,0,4.08,0,6,0,5.24-.17,8.26,1.81,9,7.5,1.86,14.19,4.17,28.32,6.24,42.49a50.16,50.16,0,0,1,0,5.95,58.31,58.31,0,0,1-3.92-4.39C167.92,604.55,157,586.69,149.37,567c-.45-1.16-1.86-2.91-2.62-2.81-3.88.5-8.41.5-11.34,2.6-3.77,2.69-6.91,3.92-11.23,2.29a15.57,15.57,0,0,0-4.93-.72c-7.58-.23-11.62,3.14-12.58,10.66,2.29.28,4.58.53,6.86.83,6.64.84,8.19,2.34,9.13,9,.59,4.28,1,8.6,1.55,12.89,1.19,9.37,4.1,19.11-7.22,25.86C124.47,631.88,129.69,636.75,130.63,644.82Zm141.91,25c-13.73,0-24.77-5.39-31.48-17.51-4.49-8.11-7.57-17-11.61-25.35-2.22-4.6-5.36-8.75-7.59-13.34-.85-1.74-1.21-4.9-.21-6.14,4-5,3.67-10.82,4.57-16.54,1.25-8,2.14-16.31,5-23.79a35.74,35.74,0,0,1,61.34-9.94c5.45,6.69,8.7,15.18,12.93,22.86,2.7,4.9,5.48,9.76,8,14.77.85,1.71,2,4.45,1.22,5.61-3.91,6.11-3.43,12.78-3.17,19.37a61.1,61.1,0,0,1-7.15,30.74C297.71,663.65,287,669.85,272.54,669.86ZM279.4,584c-1.64-6.19-2.94-13-5.32-19.5-2.23-6.06-7-7.64-14.83-6.21-5.13.94-7.67,3.92-7.93,10.49-.44,11.41.16,22.65,6.59,32.77a9.05,9.05,0,0,1,1.24,6.47c-3.86,14.06-.81,27.43,3.8,40.57,2.31,6.57,7.87,9.37,14.22,8.36,5-.79,8.16-4.82,9-11.72,1.3-10.47.24-21-3.9-30.43C277.91,604.83,275.33,595.35,279.4,584ZM437.92,456.58c3.81,17.81,12.38,32.2,28.34,41.57,12.92,7.58,26.54,8.91,39.21.59,7.49-4.92,14.16-8.53,23-4.83a3.82,3.82,0,0,0,1.48.08c4.35,0,5.59-1.74,2.92-5a26.12,26.12,0,0,1-6-18.89,14.42,14.42,0,0,0-.91-4.88c-2.69-8.58-12.49-14.42-20.9-12.21.22,2.56.49,5.18.65,7.81.3,4.81,1,9.65.67,14.43-.43,6.73-6.68,13.32-12.35,13.91-10.39,1.08-18-2.08-20.08-10-3.75-14.36-6.48-29-.17-43.52.69-1.61.61-4.6-.43-5.75-10.52-11.61-10.84-26.08-11.58-40.36-.35-6.79,3.33-11.4,9.78-13.45a37.23,37.23,0,0,1,9.26-1.81c14-.69,21.77,8.4,19.17,22.18a34.33,34.33,0,0,0-.86,7.38c.12,3.44,2.32,5.15,5.35,3.26a22.29,22.29,0,0,0,7.44-7c3.69-6.24,3-12.9.89-19.77-1.9-6.09-2.73-12.52-4-18.8-.24-1.23-.28-2.49-.53-4.9-3.11,1.55-6.57,2.13-7.74,4.08-3.28,5.5-7.32,4-11.91,2.8-13.26-3.49-25.88-2.51-36.69,6.86-8.95,7.75-15,17.52-16.85,29.27-1.17,7.36-1,14.92-1.55,22.38-.42,5.3-2,9.9-7,13.1-1.74,1.13-2.78,4.05-3.19,6.33-.53,3-.13,6.22-.13,9.34l.66,0v-9.14C432,444.26,436.39,449.47,437.92,456.58ZM603.83,617c2.34-2.57,5-2.76,8.11-1.35,9.78,4.42,19.78,5,30.25,2.37,14.61-3.62,24.56-12,27.67-26.88,3.16-15.16.35-28.57-13.9-37.5-4.16-2.61-6.92-6.13-7.51-11.18a35.07,35.07,0,0,0-1.12-4.49,7.29,7.29,0,0,0-1.51-.14,14.67,14.67,0,0,0-2.91.67c-13.07,5.44-22.71-1.38-31.25-9.62-8-7.74-5.08-18.29,5.46-22.15,7.24-2.65,14.1-1.11,20.71,2.29,5.59,2.87,8.33,7.4,8.08,13.75-.12,2.95,0,5.9,0,8.85,7.52,0,11.53-3.17,11.91-10a45.63,45.63,0,0,0-.9-11.89c-1.1-5.19-1.87-10.09,1.3-14.89.71-1.08.55-2.73.79-4.12l-1.1-1.46c-3.61,1.61-8,2.46-10.66,5-3.59,3.42-6.5,2.62-10.19,1.1-13.43-5.56-26.63-4.29-38.76,3.17s-18.44,18.91-17,33.32c1.4,13.78,9.82,22.51,22.69,27.12,1.56.56,3.08,1.25,4.66,1.78,6.84,2.3,11.6,6.36,12.49,14,.16,1.41.92,2.75,1.57,4.58,3.07-1.14,5.82-2.27,8.65-3.15,1.7-.53,3.8-1.4,5.26-.86,5.71,2.12,8.87,6.81,10.69,12.38,1.63,5,0,9.36-3.78,12.64-7.58,6.57-16.43,8.11-25.7,4.6-8.51-3.22-11.67-10.37-11.91-19.06a6.44,6.44,0,0,0-.2-2.47c-.9-1.83-1.74-4.63-3.16-5s-4.13,1.09-5.4,2.52a20.08,20.08,0,0,0-4.31,20.06,17.19,17.19,0,0,1-1,13.52c-.89,1.73-1.21,3.75-2,6.15C595.57,621.47,600.17,621,603.83,617ZM130.93,474.21c-5.89-11.16-7.45-23.41-7.54-35.78,0-8.37,5.12-13.71,13.55-14.44a79.38,79.38,0,0,1,14.93.45c8.32.85,14.44,13.41,10.75,21-1.14,2.36-1.24,5.38-1.21,8.09,0,.73,2.6,2.35,3.35,2,4.76-2.05,9.15-5.25,10-10.5,2.19-13-2.57-24.68-8.22-36.71-2.29,1.64-4.46,2.69-5.93,4.36-2.53,2.86-4.93,3.24-8.29,1.45-7-3.73-14.4-3.64-21.87-1.47-2.71.78-5.41,1.62-8.11,2.48-7.33,2.34-12.61,7.26-16.43,13.74a84.12,84.12,0,0,0-7.67,16.73c-1.66,5.12-3.46,9.91-3.12,15.35a57.25,57.25,0,0,1-.1,6c-.28,6.92-.89,13.67-7,18.42-1.17.91-1.67,2.69-2.68,4.41a44.19,44.19,0,0,1,4.21,2.41c4.15,3.09,8.55,5.67,9.89,11.56,1.63,7.14,3.3,14.59,6.76,20.92,8.66,15.81,22.37,25.3,40.36,27.9,8.21,1.19,16.31-.36,22.46-6.1,5.05-4.73,10.15-5.41,16.46-4.11,3,.62,6.3-.18,10.29-.38-1.26-2.3-1.61-3.77-2.54-4.5-4.62-3.64-5.07-8.72-5.17-14,0-1.83,0-3.67-.14-5.5-.79-10.29-9.25-16.93-20-15.38.63,6.08,1.53,12.16,1.84,18.27.5,10.26-4,15.11-15.37,17.24-9.82,1.84-15.57-1-18.32-10.78-4.32-15.39-8.29-31.05,1.06-46.31C134.84,478.62,132.26,476.74,130.93,474.21Zm560,142.65c-.92,1-2.26,1.82-2.87,3-6.62,12.68-12.8,25.6-19.74,38.1a316.8,316.8,0,0,1-39.12,56c-12,13.56-23.71,27.5-39.49,37.07-1.29.78-2,2.49-3.27,4.13a44.57,44.57,0,0,0,5.76.3,52.2,52.2,0,0,0,5.95-1.18l-4.51,5.94,1.28.94c53.68-45.08,92.81-99.69,111.3-169.2-10.35,2.92-13.27,9.23-7.55,16.17C696.06,611,693.51,614,690.92,616.86ZM284.32,330.48c-3,4.36-5.58,9-8.81,13.19-5.6,7.23-11.73,14.05-17.3,21.31-2.1,2.74-3.25,6.21-4.84,9.34l1.13,1.57,52.28-8c1.64-14.58-6.76-35.23-17.76-43.26C287.35,326.68,285.69,328.48,284.32,330.48Zm360.51-72.1c1.55,2.2,4,3.79,6,5.69,3.65,3.49,7.06,7.27,11,10.39,1.49,1.18,5.36,1.88,6.1,1,2.56-3,7.39-3.65,7.9-8.84.48-5-3.65-5.73-5.81-8.36-4.15-5-8.12-10.23-12-15.48-2.41-3.24-4.53-6.7-6.81-10.05-.16-.23-.57-.3-.91-.46l-3.69,1.78.72-1.43-19.38-15.34c-2.14.36-4.1,1.3-5,.69a9.57,9.57,0,0,1-3-4.57,42.41,42.41,0,0,1-1.28-6.42l-1.71.18c-.22,2.09-.55,4.18-.62,6.27-.08,2.65,1,5.81-.09,7.84-2.36,4.33-.12,7.21,2.38,9.54,3.1,2.89,7.06,4.83,10.53,7.36a50,50,0,0,1,5.86,5.12c2,2.06,3.86,4.34,5.62,6.36C642.12,252.88,643.09,255.9,644.83,258.38ZM546.83,649c7.07-1.48,13.49-3.25,20-4.06,7.93-1,13.95,2.67,17.62,9.71,5.83,11.19,4.45,22.7.27,33.88-.88,2.35-4.53,4.57-7.27,5.14-7,1.47-14.16,2-21.28,2.83-3.66.41-3.71-2.08-2.24-4.06,4.36-5.86,2.09-11.17-.56-16.71-.95-2-2-4.53-1.56-6.46,1.55-6.42,1.52-12.18-3.63-17.08C547.55,651.57,547.41,650.41,546.83,649Zm29.48,30c-1.1-7-2.3-14.76-3.52-22.48a2.44,2.44,0,0,0-.48-1.39c-1.63-1.41-3.34-2.72-5-4.06-1.09,1.83-2.64,3.55-3.13,5.53-.4,1.63.52,3.56.74,5.37.73,5.89,1.4,11.79,2.13,17.68.27,2.14.22,4.48,1.14,6.32a5.67,5.67,0,0,0,4.11,2.53c1,.06,2.59-1.62,3.06-2.85C576,683.82,576,681.72,576.31,679Zm-185,41.14-18,1.91c0-6.26,1.48-12.6-.39-17.72-2.12-5.83-1.28-11.41-2.12-17-.36-2.42-2.18-4.67-3.57-6.85s-2.79-4.35.8-5.34c5.57-1.54,11.25-2.68,16.89-3.94,6-1.33,10.76,1.06,15,5,4.42,4.14,1.95,8.9.18,12.83-1.27,2.81-.06,3.51,1.22,5.21a20.43,20.43,0,0,1,3.69,7c1.07,4.23-.58,9.23,4.08,12.44.52.37,0,3.85-.61,4a44.9,44.9,0,0,1-10,1.58c-.95,0-2.57-1.55-2.84-2.65-.75-3-.89-6.23-1.39-9.34-.37-2.28-.37-4.9-1.57-6.66a6.62,6.62,0,0,0-5.27-2.37c-1.28.13-3.29,2.55-3.3,4,0,5.27-.1,10.76,4.87,14.48C389.68,717.26,390.13,718.44,391.27,720.11Zm-11.92-38.79c2.41,4.1,3.5,8.44,6,9.48,2.73,1.15,5.43-2.24,5.05-5.69-.35-3.19.1-7.72-4.93-7.66C383.69,677.47,382,679.58,379.35,681.32ZM413.59,687c.19-9.55,3.13-17.32,11.9-21.78,5.76-2.94,11.45-2,16.06,2.49,8.93,8.6,12.11,28.2,6.38,39.23-5,9.67-16.69,11.53-24.87,3.73C416.28,704.21,413.81,695.87,413.59,687Zm25.1,15c-1.51-9.54-2.62-18.11-4.37-26.55-.42-2-2.93-3.65-4.49-5.45-1.41,2.22-4.15,4.54-4,6.64a243,243,0,0,0,3.7,26.56c.41,2.12,3.09,3.79,4.73,5.67,1.46-2.13,3-4.25,4.37-6.43C438.87,702.12,438.71,701.5,438.69,702Zm-187-9.82c-3,10,3.27,16.29,5.89,23.63s5.59,14.68,8.66,22.68c-2.15.54-4.94,1.46-7.8,1.94-6.4,1.09-7.77-.36-8.07-6.81-.09-2-1.34-5-2.82-5.6a9.47,9.47,0,0,0-7.41.66c-1.27.78-1.49,4.06-1.33,6.16s1.37,4,2.5,7l-16.35,2.4c.64-2.18.61-3.66,1.3-4.2,4.83-3.77,4.56-9,4.09-14.13s-.3-10.09,1.87-15.1c1.59-3.65,2.39-7.9-.76-11.79-1.28-1.58-1.36-4.12,1.58-4.55C238.82,693.63,244.69,693.06,251.65,692.22Zm-9.26,18.19-2.08.88c-.2,2.1-.83,4.29-.45,6.29.25,1.31,1.95,2.34,3,3.5.92-1.17,2.79-2.55,2.59-3.47C244.9,715.1,243.47,712.8,242.39,710.41Zm102.28,17c-5.67.8-11.32,1.74-17,2.33-3.1.33-4.1-1.75-2.51-4.09,3.44-5,1.44-9.73.12-14.75a43.15,43.15,0,0,1-1.71-13c.29-5.91-1.58-10.25-8.19-13.63,3.17-1.64,5-3,7-3.5,4.17-1,8.45-1.67,12.7-2.32,2.94-.45,6-1.15,8.87-.86,6.19.62,10,4.81,13,9.88,2.49,4.21-1.41,6.75-2.69,9.88-1.95,4.8-4.84,8.54-10.9,8.79-1.84.08-5.16,2.44-5.09,3.59A46.52,46.52,0,0,0,341,721.88c.5,1.46,2.54,2.38,3.88,3.54C344.81,726.07,344.74,726.72,344.67,727.37Zm-8.89-28.09c4.42.14,8.06-.65,8.12-4.37a17.78,17.78,0,0,0-3.26-9.92c-1.73-2.45-5.66-.54-5.7,2.73C334.9,691.46,335.46,695.2,335.78,699.28Zm-37.65,34.21c-5.88,1.17-11.13,2.5-16.47,3.17-3.35.42-5.25-1.23-3.21-4.84,2.69-4.78,2-9.38.23-14.37A32.51,32.51,0,0,1,277,705.94c.14-5,.28-9.64-4.32-13-.95-.69-1.35-2.11-2.52-4,9.35-1.33,17.93-3.29,26.56-3.55a12.43,12.43,0,0,1,12.93,11.49c.59,6.17-4.07,13-10,15.2-3.74,1.39-9.61.27-8.95,7.45.44,4.68,1.1,8.91,5.61,11.48C296.84,731.24,297.09,732,298.13,733.49Zm-9.35-27.72,2,1.4c2.18-1.82,5.85-3.42,6.17-5.52.45-3-1.36-6.4-2.71-9.4-.38-.83-2.8-1.43-3.87-1a4.43,4.43,0,0,0-2.31,3.34C288,698.29,288.49,702,288.78,705.77Zm251.3-17.27c-1.17-2-3.18-3.58-4.82-5.35A39,39,0,0,0,535,689c.35,3.79-1.75,6-4.84,7-1.68.53-4.86.3-5.51-.74a30.57,30.57,0,0,1-3.43-9.21c-1.22-5.19.8-7.86,6.1-8.71,1.1-.18,2.21-.31,3.67-.52-.42-2-.78-3.68-1.12-5.29l-9.89.57a89.77,89.77,0,0,0-1.11-9.61c-1.13-5,1.93-6.58,5.79-7.39s6.29,1.59,7.33,6.1c.37,1.58,1.87,2.89,2.85,4.32l1.26-.78V650.11l-33,5.09-.67,1.59c6.57,5.21,7.55,11.72,5.61,19.07-.34,1.27.46,2.87.81,4.3.71,2.85,2.14,5.71,2.06,8.52-.14,4.34-1.31,8.64-2.1,13.34,3.74,2.39,7.8-.09,12.11-.94,7.25-1.42,14.65-2.09,22.92-3.2C542.21,693.84,541.5,691,540.08,688.5ZM461,674c2.22,5.09,4.73,10.09,6.42,15.36,1.84,5.7,8.71,10.63,1.7,18.25L485.45,706c-.58-4.92-2.58-9.76-1.33-13.51,3.75-11.16-.83-23.72,7.41-35-3.08.63-4.85.83-6.51,1.37-3.26,1.07-5.67,1.5-4.44,6.91a28.3,28.3,0,0,1-3.68,20.52c-4.39-7.86-8.95-15.47-8-25.42L456.73,665C458.54,668.8,459.85,671.37,461,674Zm24,95.57a39.79,39.79,0,0,1-3.17-5.39,13.61,13.61,0,0,1-1.11-5.66,44.91,44.91,0,0,1,1.53-7.13c-2.32.17-4.75-.07-6.92.57-5.73,1.69-7.45-3.5-11-6.18-3.67,2.07-2.21,5.49-2.13,8.32s-.58,4.44-3.77,5c-2,.35-3.68,2-5.5,3.11l-.17,2c9.7,0,11.79,6.38,12.82,14.46,4.79-7.11,10.89-9.95,19.18-7.28Zm-84.8,2.16c6.79,5.09,12.44,9.27,9.12,18.08,6.71-4.07,13-7.11,20.49-1.27-.91-5-2.41-8.54-1.86-11.7s3.15-5.94,4.85-8.9l-.52-1.46c-7.94,2.94-12.7-1.15-17-7.44C413.88,767.17,409,770.74,400.2,771.74Zm-50,17.65c4.53-1,7.81-2.55,10.86-2.19s6.05,2.63,9.57,4.29c0-4-.84-7.43.24-10.11s4.07-4.79,6.48-7.43c-5.65-2.65-12.91-4.51-12.74-14.08-4.74,5.75-8.26,12.74-17.86,10C352.82,775.71,354.94,781.68,350.17,789.39Zm319.26-29c-.77-.92-1.75-2.5-2.53-2.44-5.48.44-10.93,1.23-16.4,1.91-.1.47-.21.94-.32,1.41,5.07,1.09,5.21,5,5.78,8.74.31,2,1.4,4,2.13,5.92l1.9-.51a77.89,77.89,0,0,0-1-8c-.81-3.63.19-5.76,4.69-6.43l3.63,14.08,3.28-5.19,5,4.09c1.06-2.86,1.74-4.71,2.61-7.07l2.37,5.24,1.93-.45c-.49-5-1-10.06-1.47-15.27-7,.36-5.15,5.67-6.79,10C672.37,764.11,670.94,762.24,669.43,760.43ZM545.21,234.32,552.36,221l-15.71-8.89c-6.3,7.61-4.74,11.79,5.34,15.29.53,2.25,1,4.44,1.56,6.63ZM348,327.13c-4.2,2.08-8.71,3.71-12.49,6.38a18.33,18.33,0,0,0-5.83,7.76c-.64,1.58,1,4.09,1.6,6.18,1.61-.5,3.53-.61,4.77-1.58a48.79,48.79,0,0,0,8-7.43c2.3-2.82,3.91-6.21,5.82-9.35ZM559.21,783.61c2.59-2.6,4.72-5.64,7.58-9.12-.19-.48-.74-2-1.31-3.46-7.13,2.15-12,6.23-13.51,13.06-3-.07-6.21-3.83-6.72,1.42-.25,2.55.64,5.21,1.28,9.73C551.31,790.9,555.42,787.41,559.21,783.61Zm10.07-583.29,1.94-5.58-13.7-6.65C556.63,194.17,558.21,195.68,569.28,200.32Zm116,169.73,1.48-.57c-1.18-6.2-2.36-12.41-3.62-19.09l-6.87-1.57C679.57,356.63,682.42,363.34,685.27,370.05ZM614.56,156.79l-25.65,7.38c2.69.72,4.81,2.05,6.23,1.52,6.63-2.49,13.07-5.49,19.58-8.32Zm-315,35.81c-4-.09-6,2.9-6,6.42,0,1.17,2.92,3.2,4.61,3.32,3.93.28,7.93-.36,12.84-.69C308.19,195.19,304.51,192.71,299.52,192.6Z"/></svg>