<svg xmlns="http://www.w3.org/2000/svg" viewBox="0 0 357.13 177.19"><path d="M196.38,92.73c1.32-2,2.4-3.56,3.4-5.15Q209,72.85,218.13,58.1c1.06-1.69,2-3.45,3.12-5.11,1.66-2.5,3.15-2.57,4.74-.1q6.82,10.61,13.49,21.32c3.4,5.43,6.64,11,10,16.39q16.29,26.06,32.64,52.06,8.94,14.28,17.75,28.65c1.22,2,2.69,3,5.07,2.78,1.4-.15,2.85.11,4.24-.07,1.14-.15,3.18-.66,3.18-1,0-1.51-.14-3.43-1.06-4.49-2.9-3.32-6.16-6.31-9.28-9.44-2.69-2.69-2.91-3.73-1.37-7.32q5.55-13,11.16-25.92a4.81,4.81,0,0,1,.81-1.54c.61-.6,1.39-1.45,2.07-1.43a2.9,2.9,0,0,1,1.9,1.59c2.45,5.47,4.78,11,7.15,16.5,1.77,4.13,3.44,8.31,5.32,12.39a3.07,3.07,0,0,1-.48,3.85c-1.84,1.92-3.65,3.87-5.51,5.78-2.08,2.15-4.34,4.14-6.22,6.44a5,5,0,0,0-.66,3.64c.09.49,1.78,1,2.75,1,11.08.07,22.16,0,33.25,0a6.9,6.9,0,0,1,2.23.06,16.13,16.13,0,0,1,2.67,1.51,16.32,16.32,0,0,1-2.74,1.44,9,9,0,0,1-2.49.05H4.68A16.13,16.13,0,0,1,1.2,177,2.15,2.15,0,0,1,0,175.45c0-.36.69-1.09,1.2-1.24a8.51,8.51,0,0,1,2.48-.14c10.83,0,21.66,0,32.5-.06,1.15,0,3.22-.7,3.27-1.22a6.07,6.07,0,0,0-1.07-4.26c-3.1-3.47-6.46-6.73-9.84-9.94a4.81,4.81,0,0,1-1.25-5.88c3.93-9.19,7.86-18.37,11.9-27.51.44-1,1.64-1.65,2.49-2.46A11.14,11.14,0,0,1,44,125.32c4.16,9.45,8.17,19,12.3,28.43.68,1.54.12,2.5-.88,3.53q-5.2,5.39-10.36,10.82a9.24,9.24,0,0,0-1.81,2.35c-1,2.19-.14,3.52,2.29,3.59,1.91.06,3.86-.18,5.74.07,3.33.43,5.16-1.16,6.81-3.84,8.2-13.33,16.55-26.57,24.83-39.85Q97,107.74,111.15,85.05,122.57,66.72,134,48.36c4.79-7.7,9.56-15.42,14.42-23.08,2.24-3.54,3.6-3.37,5.82.29,4.33,7.11,8.73,14.18,13.14,21.24Q180.86,68.41,194.41,90C194.89,90.73,195.46,91.44,196.38,92.73ZM60.86,173.54a15.42,15.42,0,0,0,2.64.5q35.23,0,70.49,0c2.42,0,3.22-.94,2.69-3.27a6.12,6.12,0,0,0-1.64-2.68c-3.3-3.41-6.67-6.77-10.06-10.09a4.14,4.14,0,0,1-.93-5.19c2.55-5.7,5-11.45,7.46-17.18,1.51-3.52,2.91-7.09,4.54-10.55.43-.93,1.5-2.15,2.31-2.17s1.78,1.2,2.44,2a11.2,11.2,0,0,1,1.08,2.52c3.47,8.11,6.9,16.24,10.44,24.32,1.67,3.81,1.77,3.76-1.08,6.62-3.42,3.42-7,6.74-10.17,10.33a5.52,5.52,0,0,0-.89,4.07c.08.55,2,1.18,3.07,1.19q15.12.13,30.24,0c1,0,2.72-.44,2.94-1.08.37-1.09-.07-2.53-.4-3.76-.15-.56-.85-1-1.32-1.46-3.24-3.24-6.46-6.51-9.73-9.71a4.16,4.16,0,0,1-.93-5.2c2.55-5.7,5-11.44,7.47-17.18,1.54-3.59,3-7.23,4.63-10.77.4-.86,1.45-1.94,2.21-1.95s1.74,1,2.34,1.84a13,13,0,0,1,1.18,2.74c3.47,8.12,6.9,16.25,10.45,24.33,1.66,3.8,1.76,3.75-1.1,6.62-3.41,3.42-6.94,6.73-10.17,10.32a5.51,5.51,0,0,0-.87,4.07c.08.56,2,1.18,3.07,1.19q15.24.13,30.49,0c.94,0,2.47-.46,2.69-1.08a6.37,6.37,0,0,0-.27-3.56c-.18-.64-.94-1.13-1.47-1.66-3.18-3.19-6.32-6.41-9.56-9.54-1.74-1.68-2-3.37-1-5.6,3.94-8.91,7.7-17.89,11.65-26.79.51-1.16,1.69-2,2.56-3,.92,1,2.19,1.77,2.69,2.91,4,9.06,7.83,18.21,11.83,27.28.87,2,.66,3.31-.93,4.82-3.74,3.55-7.43,7.18-10.9,11a5.46,5.46,0,0,0-.87,4.07c.08.55,2,1.18,3.07,1.18q35.12.11,70.24,0a28.3,28.3,0,0,0,3.18-.4c-.71-1.17-1.15-1.94-1.63-2.7-2.26-3.6-4.55-7.17-6.79-10.78q-13-20.89-25.93-41.8c-5.84-9.4-11.73-18.77-17.57-28.18-1.4-2.25-2.2-2.36-3.83-.26-1.94,2.5-3.79,5.06-5.79,7.51-1.77,2.18-3,2.16-4.79,0s-3.47-4.47-5.21-6.71c-1.17-1.51-2.23-1.79-3.48,0s-2.76,3.54-4.17,5.29c-2.21,2.75-4.11,2.77-6.29.06-1.56-2-3.06-4-4.65-5.87A26.79,26.79,0,0,0,204.19,88c-1.83,2.81-3.55,5.24-5.08,7.8-2.09,3.5-3.47,3.66-5.65.19-5-8-10-16.15-14.94-24.22-.5-.82-1.13-1.56-1.9-2.61-1.11,1.36-2,2.43-2.86,3.52-2.68,3.4-5.23,6.91-8,10.19-1.6,1.86-3.07,1.62-4.55-.26q-4.33-5.49-8.67-11c-1.74-2.19-2.17-2.22-3.91,0-2.84,3.59-5.54,7.29-8.38,10.89-1.61,2-2.69,2.13-4.46.2s-3.33-4.14-5-6.21-3.41-4.18-5.33-6.53c-.82,1.1-1.4,1.78-1.88,2.53-4.05,6.41-8.12,12.8-12.12,19.23-10.24,16.47-20.42,33-30.68,49.43-6,9.68-12.17,19.29-18.23,29C61.91,171.08,61.52,172.17,60.86,173.54Zm90.25-145.4-4.69,7.54Q137.54,50,128.64,64.32a2.67,2.67,0,0,0,.22,3.59c2.44,3,4.78,6,7.17,9,1.49,1.87,2.12,1.87,3.62-.07,2.74-3.56,5.44-7.16,8.17-10.72,2-2.62,3.27-2.65,5.26-.14,2.94,3.72,5.93,7.4,8.75,11.22,1.39,1.89,2.38,1.62,3.6,0,2.11-2.88,4.31-5.71,6.42-8.6,2.5-3.4,2.43-3.55.13-7.21-4.61-7.33-9.14-14.71-13.73-22C156.06,35.79,153.79,32.33,151.11,28.14ZM224.06,57a8,8,0,0,0-1.27,1.16c-5.13,8.16-10.28,16.32-15.29,24.55a3,3,0,0,0,.4,2.59c1.53,2.18,3.33,4.16,4.91,6.29,1.15,1.54,2,1.38,3.06-.09,1.58-2.23,3.18-4.47,4.91-6.6,2.05-2.54,3.34-2.49,5.3,0,1.68,2.17,3.38,4.33,5,6.53,1.26,1.7,2.34,1.54,3.5-.08a61.43,61.43,0,0,1,4.06-5.37c1.72-1.91,1.45-3.56.14-5.57-2.95-4.52-5.72-9.17-8.58-13.75C228.24,63.58,226.24,60.45,224.06,57Zm-85.53,72.84c-.77,1.33-1.19,1.93-1.48,2.6-2.12,4.87-4.27,9.73-6.3,14.64-4,9.59-4.38,6.47,2.61,13.75.85.89,1.84,1.66,2.59,2.32.84-1.58,1.35-3.71,2.15-3.82,2.85-.41.92,2.81,2.69,4,2.27-2.26,4.54-4.63,6.94-6.87a3,3,0,0,0,.73-4c-2.39-5.38-4.62-10.84-7-16.25C140.66,134.31,139.72,132.41,138.53,129.87Zm42.28,33.46c2.57-2.59,5.27-5.15,7.74-7.91.45-.5.25-1.92-.09-2.73-2.77-6.67-5.64-13.3-8.52-19.92a19,19,0,0,0-1.51-2.43,5.79,5.79,0,0,0-.61.67c-3.25,7.46-6.51,14.91-9.7,22.4a2.15,2.15,0,0,0,0,1.88c2.66,2.64,5.44,5.17,8.18,7.73,1.18-1-.57-4,2.06-3.66C179.24,159.45,179.84,161.65,180.81,163.33Zm37.84-33.2a8.38,8.38,0,0,0-.93,1c-3.21,7.38-6.47,14.75-9.53,22.19a3.81,3.81,0,0,0,.83,3.07,60.42,60.42,0,0,0,4.89,5c.71.68,1.53,1.25,2.07,1.68.82-1.51,1.35-3.63,2.15-3.74,2.82-.37.88,2.85,2.67,4,2.27-2.27,4.55-4.65,6.95-6.89a3,3,0,0,0,.7-4c-2.36-5.31-4.56-10.69-6.86-16C220.72,134.44,219.74,132.46,218.65,130.13Zm98.19,33.12c2.11-2.09,4.31-4.42,6.68-6.54,1.59-1.41,1.72-2.81.92-4.64-2.93-6.7-5.78-13.44-8.7-20.14a12.85,12.85,0,0,0-1.48-2c-3.5,8.17-6.78,15.79-10,23.43a1.94,1.94,0,0,0,0,1.64c2.45,2.69,5,5.3,7.4,7.82,1.13-1.59,1.87-2.62,2.6-3.66Zm-273,0c2.07-2,4.21-4.34,6.55-6.4,1.76-1.55,1.81-3.06.9-5.07-2-4.38-3.8-8.85-5.71-13.28-1.17-2.69-2.39-5.36-3.73-8.36a8.33,8.33,0,0,0-1.26,1.47q-4.72,10.85-9.35,21.75a2.14,2.14,0,0,0,.11,1.85c2.45,2.64,5,5.18,7.35,7.55l2.64-3.56ZM188.73,12c-11.42,2.25-20,8.54-26.1,18.4a3.74,3.74,0,0,0,0,4.41c1.89,2.94,3.73,5.91,5.57,8.88Q174.11,53.2,180,62.74q7.44,12,14.91,23.94c.94,1.5,1.86,1.4,2.79-.11q11.79-19.11,23.61-38.2c1.67-2.71,2.78-2.83,4.5-.2,2.41,3.69,4.66,7.49,7,11.2a7.25,7.25,0,0,0,1.58,1.36c.43-.55,1.11-1,1.25-1.66a37.41,37.41,0,0,0-.12-17.54,40.27,40.27,0,0,0-38.76-30.77C194.12,11.15,191.4,11.44,188.73,12ZM90,45.12c-9.32,0-18.64,0-28,0-6.83,0-12.79-6.23-13.27-13.09-.69-9.91,4.88-15.15,12-17a3.83,3.83,0,0,0,2-1.92C66.89,4.72,73.27.16,82.83,0c9.85-.16,16.35,4.6,20.62,13a3.29,3.29,0,0,0,3,2.11c6,.57,10.14,3.64,12.4,9.33a7.47,7.47,0,0,0,2.91,3.42A9.44,9.44,0,0,1,126.71,36a8.79,8.79,0,0,1-4.93,8.35,8,8,0,0,1-3.59.73C108.79,45.14,99.38,45.12,90,45.12ZM83.17,3.59A18.26,18.26,0,0,0,66,15.5c-.8,2-1.9,3.31-4.07,3.49-6.79.6-11.06,8.32-9.13,14.49C54.48,38.89,59.12,42,66.27,42q24.51.09,49,0a11.38,11.38,0,0,0,4.34-.93,5.13,5.13,0,0,0,3.12-5.7c-.43-2.26-1.56-4-4.14-4.34-1.87-.25-2.53-1.5-2.85-3.26A10.49,10.49,0,0,0,105,18.94c-2.49.16-3.54-.79-4.41-3C97.47,8.24,90.85,3.62,83.17,3.59Zm214.1,99.52c-5.84,0-11.67,0-17.5,0-5.14,0-8.73-3.85-9-9-.32-5.61,2-9.22,7.24-11.12a4.15,4.15,0,0,0,1.88-1.81c5.34-9.23,16.88-11.16,24-3.37a43.34,43.34,0,0,0,8.48,6.77c3.5,2.33,6.2,6.29,8.38,10s-.86,8.82-5.72,8.57C309.11,102.89,303.18,103.12,297.27,103.11Zm.46-3H310c1.33,0,2.8.29,3.95-.18,1.36-.55,2.43-1.78,3.62-2.71-.84-1-1.71-2-2.53-3a13.55,13.55,0,0,1-2.2-3c-.93-2.36-2.28-4.3-4.91-4.33s-3.87-1.22-5-3.51c-1.93-3.86-5.15-6.22-9.76-6.16a10.14,10.14,0,0,0-9.72,6.18c-.92,2-2,3.19-4.29,3.59a6.14,6.14,0,0,0-4.78,6,6.39,6.39,0,0,0,4.49,6.48,20.32,20.32,0,0,0,4.91.74C288.4,100.13,293.07,100.06,297.73,100.06ZM273.82,38.12c-4.66,0-9.33,0-14,0-3.9,0-6.66-1.86-7.72-5.12-1.28-3.92-.18-8.39,3-10.3a25,25,0,0,0,6.22-5.57c5.1-6.16,15.4-5.08,19.59,1.71a6.22,6.22,0,0,0,3,2.32c2.36.91,4.28,2.07,5.41,4.47a9.12,9.12,0,0,0,2.26,2.6,5.91,5.91,0,0,1,1.93,6.51c-.91,2.55-2.68,3.51-5.39,3.43C283.32,38,278.57,38.12,273.82,38.12Zm.24-3.06c3.74,0,7.49,0,11.23,0a7.46,7.46,0,0,0,3.12-.61c1.72-.86,1.55-2.27,0-3.35a15.19,15.19,0,0,1-2.18-2.45c-1.08-1.17-2.15-3.19-3.32-3.26-2.88-.18-4-1.72-5.08-4a7.48,7.48,0,0,0-7.05-4.31c-3.3-.05-6.19,1-7.73,4A6.6,6.6,0,0,1,258.52,25c-2.26.59-3.11,2.43-3.12,4.58s.81,4,3.06,4.62a18.79,18.79,0,0,0,4.62.84C266.74,35.14,270.4,35.06,274.06,35.06ZM59.62,102.12H47.4c-4.13,0-6.66-1.78-7.66-5.35a8.79,8.79,0,0,1,3.49-9.64A20.42,20.42,0,0,0,47.68,83c3.62-4.67,12.91-5.51,16.54-1.32a32.7,32.7,0,0,0,7.22,5.82c2.7,1.76,4.85,4.78,6.45,7.69,1.8,3.25-.81,6.85-4.55,6.89C68.77,102.15,64.19,102.11,59.62,102.12Zm.51-3.06c3.5,0,7,.06,10.49,0a7.19,7.19,0,0,0,3-.82,1.84,1.84,0,0,0,.39-1.78,43.15,43.15,0,0,0-3.83-5,3.83,3.83,0,0,0-2.3-1.25c-2.2-.13-3.35-1.17-4.34-3.12a7.18,7.18,0,0,0-6.78-4.32,7.73,7.73,0,0,0-7,4.4c-.69,1.28-2.46,1.92-3.54,3s-2.91,2.66-3,4.09,1.48,3,2.78,3.94c1.11.76,2.86.76,4.34.81C53.63,99.13,56.88,99.06,60.13,99.06Zm82.1,53.73c.61.76,2.29.79,3.49.8a3.74,3.74,0,0,0,.59-2.58c-.81-2.43-1.92-4.75-3-7.09a6.4,6.4,0,0,0-.94-1.24c-.37,1.78-.69,3.3-1,4.86l-1.47.19C140.7,149.56,141.14,151.44,142.23,152.79Zm38.51-4.66-.74-.2c.68,1.59,1.09,3.39,2.13,4.68.64.79,2.22.95,3.41,1.08.33,0,1.23-1.18,1.1-1.54-1.18-3.26-2.54-6.46-3.9-9.82ZM222,152.58c.85,1.88,2.54,1.38,3.85.95.41-.14.6-1.82.41-2.69a22.09,22.09,0,0,0-1.58-4.16c-.64-1.4-1.4-2.76-2.23-4.39l-1.07,5.23-1.47.19C220.69,149.55,221.31,151.08,222,152.58Zm96.62-9.52-2.12,5.48c2.32,6.32,1.72,5.12,6.89,4.88C321.57,147.69,319.48,143.48,318.61,143.06Zm-272.79-.55-2.31,6c2.49,6.68.94,5,7.16,4.88Z"/></svg>