<svg xmlns="http://www.w3.org/2000/svg" viewBox="0 0 769.5 867.37"><path d="M532.85,441.69c1.36,6.85-.85,44.36-7.76,35.74,8.29-20.42,5.44-44.58-2.33-63.85-8-24.06-.56-50.92-1.37-75.94.7,6.23,21.11,44.66,19.1,29.39-3.72-7.28-11.24-12.17-10.67-22.35.44-5.1-9-9.84-10.78-15.71,12.82,4.88.06-7.16-4.19-10.82,14.18,2.6,24.53,11.07,36.64,17.19,77-36.54-281.72-33.78-165.29-17.88,7.69,1.93,18.83,4.85,4.75,8.71,3.13,2.14,2.55,5.92,1.19,8.79-13.66,4.59,32.56,14.66,18.58,20.29-12.42-5.59-27-1.25-36.58,6.53,14.63,8.57,33.84,8.4,44.83,22.78,22.62,15.28,2.27,13.11-13.14,11.22,2.1-4,14.49-3.58,8.12-9.18-15.09-13.36-33.75-.17-51.86,0-15.8.79-1.38,18.81-10.81,27.23,3.8-10.63-24.37-9.34-10.54-16.3,1.07-.39,1.17-3.37,1.72-5.15-7-2.86-17.91,4.32-16-6.64,2.14-10.58,3.2-18.48,15.77-14.59,3.18-3.75-4.84-6.93-7.08-6.66-6.63,1.84-5.46-1.75-5.65-5.83-8.94-19.64,6.87-16.94,22.42-19.9-8.91-3.43-15.3-9.06-3-12.56-9.21-7.4-2-6.74,5.5-12.06-30.08-7.09-.29,17.77-33.17,14.78-6.48-2.74-12.46-5.1-12.41,5.83-8.4-2.64-7.38-15.69-19.47-8.37-13.67-5.76-7.81,6.48-10.19,11.09-5.95,12.88-5.35-19.6-22.29-7.83-7.59.41-.1-2.66,2.75-4.26-20.44-3.16-47.71-1.69-67.81,3.86,14,9,58.81-14.75,56.27,10.09-1,8.53,6.51,16.12,10.12,23.42-1.12,9.75,0,15.62,8.88,20.55,28.06,33.82-59.92-12.31-56.79,22.41-4,15.48-4.08-8.37-5.54-13.74-3.81-11.15,5.07-16.56,10.89-24.22-63.45-16.61,13.22,133-7.42,137.41C214.87,372.33,27.2,387.22,0,274.74,55.38,347.87,224,302,305.71,287.68c-43.1-.19-91.78,19.1-133.22,6.83C202.2,207.14,211.26,110.79,241.64,23c138.09-52.73,355.12-21.89,339,165.88,6.68,17.41-21,10.81-31.72,17.59-7.59,3.35-50.15,8.69-40.32,14,396.32-99.28,234.12,318.19,194.1,190.08,2.56-8.8-16.26-9.51-20.06-12.78-6.36-13.06-24.22-10.92-30-22.63-5.68-12.85-18-4.26-22.48,1.46,1.75,11.39,38.15,11.45,26.77,19.38-12.36,2,3.53,6.56,2.51,14.92-2,5.32-16.25,6.44-4.32,10.65,4.2.21,7.81,7,12.49,1.26,8.81,6.93,17,16.29,28.16,19.15,12.45,3.25,28-1.73,34,13-45,14.62-35.27,31.23,7.89,30.49-14.69,18.53-38,.84-55.86,3.08,9,7.2,20.84,13.58,32.56,15.69-41.37,14.15-126.58-35.81-71.8,22.31-2.45,14.14,8.44,20.28,20.21,27.75C594,534.56,583,504.91,645.37,583.1c-11.06-.94-51.44-34.6-27.72-6.55-31.39-12.34-25.22-8.26-9.48,18.07-36.69-19.37,9,23.42,17.5,37.21-10.45-.15-12.58-13.62-22.89-15.13-1.52,15.22,10,21.76,17.81,31.76-11.37-4.64-24.69-2.88-32.31-14.79-1.16-.91-4.69-1-5.24-.14-9.36,7.66-20.87-9.15-31.3-10.67-19.55-8,7.43-22.54-4.39-33.53,1-5.62,10.2-13.38,1.11-18.5-4.64-9.06-.22-21.51-3.32-31.21-5.5,4.33-5.18,12.81-8.25,18.86-10.5,6,10.17-19.08-3.45-21.7-11.91-10.61,6.28-31,1.46-2.13,28.34,1.81,49.25-34.14,49.24-60-4.52,3.68-11,28.41-14.26,19.47,7.5-21.76,25.1-35,32-55.14,2.15-4.69,0-5.14-4.44-4.56C565.45,425.32,537.29,382.05,532.85,441.69Z"/><path d="M615,803.89c53-107.76,36.12-118.74-64.49-175.11-6.26-3.56-6.37-.82-6.32,4.44.91,43.54-54.47,67.4-90.1,54.42,8.69,1.92,8.5-7.71.5-5.53-5.29,5.42-10.14,11.78-16.35,16.2-23.36,19.14-68.21,16-71.12,51.55-12.41,3.23-20.36-7.58-30.41-12.47-10.58-4.19-21.36-7.27-30.1-15-12.51-10.06-39-12.76-43.73-27.7-21.94,47.9,10.31,53.66,34.69,84.13-15.19-4.15-24.07-25.91-40.06-25.18,9.69,11.72-22.14,21-16,44.58-12.63-23.12,6.49-73.28,8.56-104.84-7.59-12-93.54,63.8-85.1,80.15C147.16,917,597.26,869.9,615,803.89Z"/><path d="M214.62,571.31c3.41-12.77,16.84-18.85,18.17-34,2.32-12,12.36-4.86,20.22-10.22,12.53-8.48,43.32-16.18,12.43-23.91-.66-15.8,17.93,15.56,43.71,6.75,21.67.22,62.73-21.31,33.59-42.93,17.93,7.28,20.66,30.53,3.37,41.57,50.22,16.2,47.84,15.09,18.68-26.24-10.65-37.6,52.86,64.19,51.13,74.19,1,21.92,13.37,52.34-1.36,70.68-15.92,0,9.15-49.64-46.17-54.69,12.64-14.33,28.44,7.71,40.14-.38,9.85-16.86-23.7-68-17.45-27.9-11.9,3.84-25.61-6.44-36.71-2.11-1.81,4.73-3.85,6.43-8.19,2.49-2,1.13-9.55,6.31-11.54,5.11-91.47,19.3-101.19,31.7,6.52,26.66-35.53,19.45-51.3,2.1-83.14,12.13,1.82,35.06,39,21.51,62.57,21.51,22.15,38.49,32.65,8.09,62.63,15.86,8.78-8.72,13.24,9.61,14,15.08-6.37,5.52-16.63,5.11-24.49,7.59-2.26,1.55-2,3,.95,3,25.05,7.23-17.15,17-23.91,20.24-18.58-9.76-3.44,28.28,6.83,25.07-9-14.89,8.78-31.55,7.08-10.52-12.89,9.46,8,6.09-5.52,20,56.47-9.16,98.18-45.12,141.49-78.92C387.41,764.3,254.94,754.19,214.62,571.31Z"/><path d="M281.7,456.94c1.48-9.69,10-.72,15.59.33,9.46-2.52,3.25,6.86-.11,9.47C280.4,469.37,268.56,472.54,281.7,456.94Z"/><path d="M298.7,406.33c-5.83,9.57-6.54,24-15.18,29.17C286.27,425.42,283.36,382.72,298.7,406.33Z"/><path d="M540.68,485.28c3.26,23.37-5.21,4.93-3.11-1.4,12-10.07,1.9-25.65,11.24-35.36C546.73,458.13,553.09,487,540.68,485.28Z"/><path d="M265.44,503.15c2.56,1.89,5.15,3.74,7.72,5.6-14.93.87-29.76-16.14-20.47-29.27,1.28,10.35,1.11,22.19,12.9,23.79Z"/><path d="M264.57,449.17c-.75,12.5-2.62,22.87.88,35.06C256.5,476.44,258.35,458.06,264.57,449.17Z"/><path d="M325.86,496.67c-7.88,4.23-20,7.13-8.45-4C326.89,487.89,340.15,500.24,325.86,496.67Z"/><path d="M562.5,420.78c13.31,5.25-12.2,13.54-17.54,17.3C548.09,430.54,557.16,426.52,562.5,420.78Z"/><path d="M214.72,571.2c-6.63-5.48-1.73-17.17-3-25.14C217.47,538.31,213.6,566.43,214.72,571.2Z"/><path d="M281.05,399.44c-3.4,3.75-4.61,14.05-10.89,14.29C271.26,406.8,277.83,380.67,281.05,399.44Z"/><path d="M569.72,461.66c-3.73,5.41-6.71,8.68-8,.85C563.46,456.31,565.89,455.69,569.72,461.66Z"/><path d="M297.81,391.28c-3.48,4-5,4.47-6.25-.4C292.72,386.18,294.64,387.89,297.81,391.28Z"/><path d="M404.7,628.75c-1.08.55-2.37,1.38-2.48,1.23C392.9,620.89,399,617,404.7,628.75Z"/><path d="M271.41,461.66c-3.13-6.26,2.81-10.93,7.45-5.19Z"/><path d="M438.1,376.55c-3.71-3.41,4.9-5.67,7.09-8.24C449.41,370.9,440.33,373.88,438.1,376.55Z"/><path d="M298.1,348.15c3.94-3.78,5.43,1.52,8.36,3.58C305.43,356.41,301.19,349.78,298.1,348.15Z"/><path d="M209.92,421.58c-2.33,2-4,7.41-6.57,3.84C205.52,423.19,206.27,418.05,209.92,421.58Z"/></svg>